<svg width="24" height="24" viewBox="0 0 24 24" fill="none" xmlns="http://www.w3.org/2000/svg">
<circle cx="12" cy="12" r="12" fill="#2E2C30"/>
<path d="M18.959 12.0153V17.3029C18.959 18.0083 18.6788 18.6848 18.18 19.1835C17.6812 19.6824 17.0047 19.9625 16.2994 19.9625H8.32051C7.61513 19.9625 6.93865 19.6824 6.43987 19.1835C5.9411 18.6848 5.66089 18.0083 5.66089 17.3029V12.0153L10.3152 5.99956H14.3046L18.959 12.0153Z" fill="#9282FA" fill-opacity="0.4"/>
<path d="M21.5944 12.3993L20.2297 5.08532C20.1964 4.90703 20.1269 4.73746 20.0256 4.58702C19.9243 4.43658 19.7933 4.30845 19.6406 4.21051C19.4879 4.11258 19.3169 4.04691 19.1378 4.01755C18.9589 3.98818 18.7758 3.99573 18.5998 4.03975L18.5741 4.04723L14.209 5.33465H10.4107L6.04562 4.05139L6.01985 4.04391C5.8439 3.99989 5.66081 3.99233 5.48183 4.0217C5.30285 4.05107 5.13177 4.11674 4.97911 4.21467C4.82645 4.3126 4.69544 4.44073 4.59413 4.59117C4.49281 4.74162 4.42335 4.91118 4.39 5.08947L3.02529 12.3993C2.96693 12.692 3.01026 12.9959 3.14808 13.2607C3.28591 13.5254 3.51001 13.7353 3.78328 13.8554C3.95829 13.9357 4.14844 13.9776 4.34097 13.9784C4.57142 13.9783 4.79761 13.9163 4.9959 13.7989V17.3029C4.9959 18.1847 5.34617 19.0303 5.96963 19.6537C6.5931 20.2772 7.4387 20.6274 8.32042 20.6274H16.2993C17.181 20.6274 18.0266 20.2772 18.65 19.6537C19.2736 19.0303 19.6238 18.1847 19.6238 17.3029V13.7997C19.8219 13.9169 20.0478 13.9789 20.2779 13.9792C20.4706 13.9787 20.661 13.937 20.8364 13.8571C21.11 13.7369 21.3343 13.5269 21.4722 13.2616C21.61 12.9965 21.6532 12.6922 21.5944 12.3993ZM4.33099 12.6486L5.69654 5.33465L9.19311 6.36276L4.33099 12.6486ZM16.2993 19.2976H12.9748V18.2429L14.1101 17.1084C14.2348 16.9837 14.3049 16.8145 14.3049 16.638C14.3049 16.4616 14.2348 16.2924 14.1101 16.1676C13.9853 16.0429 13.8161 15.9728 13.6397 15.9728C13.4632 15.9728 13.294 16.0429 13.1692 16.1676L12.3099 17.0278L11.4505 16.1676C11.3257 16.0429 11.1565 15.9728 10.98 15.9728C10.8036 15.9728 10.6344 16.0429 10.5096 16.1676C10.3849 16.2924 10.3147 16.4616 10.3147 16.638C10.3147 16.8145 10.3849 16.9837 10.5096 17.1084L11.6449 18.2429V19.2976H8.32042C7.79139 19.2976 7.28402 19.0874 6.90995 18.7134C6.53587 18.3393 6.3257 17.8319 6.3257 17.3029V12.2422L10.6418 6.66446H13.9779L18.294 12.2422V17.3029C18.294 17.8319 18.0838 18.3393 17.7097 18.7134C17.3357 19.0874 16.8283 19.2976 16.2993 19.2976ZM20.2887 12.6486L15.4266 6.36276L18.9232 5.33465L20.2887 12.6486ZM10.3151 13.646C10.3151 13.8432 10.2566 14.036 10.1471 14.2001C10.0375 14.364 9.88169 14.4919 9.69945 14.5674C9.51721 14.6429 9.31667 14.6626 9.1232 14.6241C8.92974 14.5856 8.75203 14.4906 8.61254 14.3512C8.47306 14.2117 8.37807 14.034 8.33959 13.8405C8.3011 13.647 8.32085 13.4465 8.39634 13.2643C8.47183 13.082 8.59966 12.9263 8.76368 12.8167C8.92769 12.7071 9.12052 12.6486 9.31777 12.6486C9.58229 12.6486 9.83598 12.7537 10.023 12.9407C10.2101 13.1277 10.3151 13.3814 10.3151 13.646ZM16.2993 13.646C16.2993 13.8432 16.2408 14.036 16.1312 14.2001C16.0216 14.364 15.8658 14.4919 15.6836 14.5674C15.5013 14.6429 15.3008 14.6626 15.1074 14.6241C14.9139 14.5856 14.7362 14.4906 14.5967 14.3512C14.4572 14.2117 14.3622 14.034 14.3237 13.8405C14.2852 13.647 14.305 13.4465 14.3805 13.2643C14.456 13.082 14.5838 12.9263 14.7478 12.8167C14.9118 12.7071 15.1047 12.6486 15.3019 12.6486C15.5665 12.6486 15.8201 12.7537 16.0071 12.9407C16.1942 13.1277 16.2993 13.3814 16.2993 13.646Z" fill="#9282FA"/>
</svg>
